<svg width="113" height="22" viewBox="0 0 113 22" fill="none" xmlns="http://www.w3.org/2000/svg">
<path d="M0.777344 21V1.09375H6.90234C8.65234 1.09375 10.2155 1.49023 11.5918 2.2832C12.9772 3.06706 14.0573 4.18815 14.832 5.64648C15.6068 7.0957 15.9941 8.74544 15.9941 10.5957V11.5117C15.9941 13.362 15.6113 15.0072 14.8457 16.4473C14.0892 17.8874 13.0182 19.0039 11.6328 19.7969C10.2474 20.5898 8.68424 20.9909 6.94336 21H0.777344ZM4.87891 4.41602V17.7051H6.86133C8.46549 17.7051 9.69141 17.181 10.5391 16.1328C11.3867 15.0846 11.8197 13.5853 11.8379 11.6348V10.582C11.8379 8.55859 11.4186 7.02734 10.5801 5.98828C9.74154 4.9401 8.51562 4.41602 6.90234 4.41602H4.87891ZM25.5371 21.2734C23.3678 21.2734 21.5996 20.6081 20.2324 19.2773C18.8743 17.9466 18.1953 16.1738 18.1953 13.959V13.5762C18.1953 12.0905 18.4824 10.7643 19.0566 9.59766C19.6309 8.42188 20.4421 7.51953 21.4902 6.89062C22.5475 6.2526 23.7507 5.93359 25.0996 5.93359C27.123 5.93359 28.7135 6.57161 29.8711 7.84766C31.0378 9.1237 31.6211 10.9329 31.6211 13.2754V14.8887H22.2012C22.3288 15.8548 22.7116 16.6296 23.3496 17.2129C23.9967 17.7962 24.8125 18.0879 25.7969 18.0879C27.319 18.0879 28.5085 17.5365 29.3652 16.4336L31.3066 18.6074C30.7142 19.446 29.9121 20.1022 28.9004 20.5762C27.8887 21.041 26.7676 21.2734 25.5371 21.2734ZM25.0859 9.13281C24.3021 9.13281 23.6641 9.39714 23.1719 9.92578C22.6888 10.4544 22.3789 11.2109 22.2422 12.1953H27.7383V11.8809C27.7201 11.0059 27.4831 10.3314 27.0273 9.85742C26.5716 9.37435 25.9245 9.13281 25.0859 9.13281ZM39.2227 16.1738L41.9707 6.20703H46.0996L41.1094 21H37.3359L32.3457 6.20703H36.4746L39.2227 16.1738Z" fill="#10EAEA"/>
<path d="M58.4316 15.7773C58.4316 15.0026 58.1582 14.4102 57.6113 14C57.0645 13.5807 56.0801 13.1432 54.6582 12.6875C53.2363 12.2227 52.1107 11.7669 51.2812 11.3203C49.0208 10.099 47.8906 8.45378 47.8906 6.38477C47.8906 5.30924 48.1914 4.35221 48.793 3.51367C49.4036 2.66602 50.2741 2.00521 51.4043 1.53125C52.5436 1.05729 53.8197 0.820312 55.2324 0.820312C56.6543 0.820312 57.9212 1.08008 59.0332 1.59961C60.1452 2.11003 61.0065 2.83464 61.6172 3.77344C62.237 4.71224 62.5469 5.77865 62.5469 6.97266H58.4453C58.4453 6.0612 58.1582 5.35482 57.584 4.85352C57.0098 4.3431 56.2031 4.08789 55.1641 4.08789C54.1615 4.08789 53.3822 4.30208 52.8262 4.73047C52.2702 5.14974 51.9922 5.70573 51.9922 6.39844C51.9922 7.04557 52.3158 7.58789 52.9629 8.02539C53.6191 8.46289 54.5807 8.87305 55.8477 9.25586C58.181 9.95768 59.8809 10.8281 60.9473 11.8672C62.0137 12.9062 62.5469 14.2005 62.5469 15.75C62.5469 17.4727 61.8952 18.8262 60.5918 19.8105C59.2884 20.7858 57.5339 21.2734 55.3281 21.2734C53.7969 21.2734 52.4023 20.9954 51.1445 20.4395C49.8867 19.8743 48.9251 19.1042 48.2598 18.1289C47.6035 17.1536 47.2754 16.0234 47.2754 14.7383H51.3906C51.3906 16.9349 52.7031 18.0332 55.3281 18.0332C56.3034 18.0332 57.0645 17.8372 57.6113 17.4453C58.1582 17.0443 58.4316 16.4883 58.4316 15.7773ZM69.8066 2.57031V6.20703H72.3359V9.10547H69.8066V16.4883C69.8066 17.0352 69.9115 17.4271 70.1211 17.6641C70.3307 17.901 70.7318 18.0195 71.3242 18.0195C71.7617 18.0195 72.1491 17.9876 72.4863 17.9238V20.918C71.7116 21.1549 70.9141 21.2734 70.0938 21.2734C67.3229 21.2734 65.9102 19.8743 65.8555 17.0762V9.10547H63.6953V6.20703H65.8555V2.57031H69.8066ZM73.5117 13.4668C73.5117 11.9993 73.7943 10.6914 74.3594 9.54297C74.9245 8.39453 75.7357 7.50586 76.793 6.87695C77.8594 6.24805 79.0944 5.93359 80.498 5.93359C82.4941 5.93359 84.1211 6.54427 85.3789 7.76562C86.6458 8.98698 87.3522 10.6458 87.498 12.7422L87.5254 13.7539C87.5254 16.0234 86.8919 17.8464 85.625 19.2227C84.3581 20.5898 82.6582 21.2734 80.5254 21.2734C78.3926 21.2734 76.6882 20.5898 75.4121 19.2227C74.1452 17.8555 73.5117 15.9961 73.5117 13.6445V13.4668ZM77.4629 13.7539C77.4629 15.1576 77.7272 16.2331 78.2559 16.9805C78.7845 17.7188 79.541 18.0879 80.5254 18.0879C81.4824 18.0879 82.2298 17.7233 82.7676 16.9941C83.3053 16.2559 83.5742 15.0801 83.5742 13.4668C83.5742 12.0905 83.3053 11.0241 82.7676 10.2676C82.2298 9.51107 81.4733 9.13281 80.498 9.13281C79.5319 9.13281 78.7845 9.51107 78.2559 10.2676C77.7272 11.015 77.4629 12.1771 77.4629 13.7539ZM98.2715 9.91211C97.7337 9.83919 97.2598 9.80273 96.8496 9.80273C95.3548 9.80273 94.375 10.3086 93.9102 11.3203V21H89.959V6.20703H93.6914L93.8008 7.9707C94.5938 6.61263 95.6921 5.93359 97.0957 5.93359C97.5332 5.93359 97.9434 5.99284 98.3262 6.11133L98.2715 9.91211ZM106.721 21.2734C104.551 21.2734 102.783 20.6081 101.416 19.2773C100.058 17.9466 99.3789 16.1738 99.3789 13.959V13.5762C99.3789 12.0905 99.666 10.7643 100.24 9.59766C100.814 8.42188 101.626 7.51953 102.674 6.89062C103.731 6.2526 104.934 5.93359 106.283 5.93359C108.307 5.93359 109.897 6.57161 111.055 7.84766C112.221 9.1237 112.805 10.9329 112.805 13.2754V14.8887H103.385C103.512 15.8548 103.895 16.6296 104.533 17.2129C105.18 17.7962 105.996 18.0879 106.98 18.0879C108.503 18.0879 109.692 17.5365 110.549 16.4336L112.49 18.6074C111.898 19.446 111.096 20.1022 110.084 20.5762C109.072 21.041 107.951 21.2734 106.721 21.2734ZM106.27 9.13281C105.486 9.13281 104.848 9.39714 104.355 9.92578C103.872 10.4544 103.562 11.2109 103.426 12.1953H108.922V11.8809C108.904 11.0059 108.667 10.3314 108.211 9.85742C107.755 9.37435 107.108 9.13281 106.27 9.13281Z" fill="white"/>
</svg>
